<svg width="20" height="20" viewBox="0 0 20 20" fill="none" xmlns="http://www.w3.org/2000/svg">
<g clip-path="url(#clip0_253_838)">
<path d="M9.99984 9.08335C9.4915 9.08335 9.08317 9.49169 9.08317 10C9.08317 10.5084 9.4915 10.9167 9.99984 10.9167C10.5082 10.9167 10.9165 10.5084 10.9165 10C10.9165 9.49169 10.5082 9.08335 9.99984 9.08335ZM9.99984 1.66669C5.39984 1.66669 1.6665 5.40002 1.6665 10C1.6665 14.6 5.39984 18.3334 9.99984 18.3334C14.5998 18.3334 18.3332 14.6 18.3332 10C18.3332 5.40002 14.5998 1.66669 9.99984 1.66669ZM11.8248 11.825L4.99984 15L8.17484 8.17502L14.9998 5.00002L11.8248 11.825Z" fill="currentColor"/>
</g>
<defs>
<clipPath id="clip0_253_838">
<rect width="20" height="20" fill="white"/>
</clipPath>
</defs>
</svg>
