<svg width="20" height="20" viewBox="0 0 20 20" fill="none" xmlns="http://www.w3.org/2000/svg">
<g clip-path="url(#clip0_217_4009)">
<path d="M17.4502 9.16665C17.0668 5.69165 14.3085 2.93331 10.8335 2.54998V0.833313H9.16683V2.54998C5.69183 2.93331 2.9335 5.69165 2.55016 9.16665H0.833496V10.8333H2.55016C2.9335 14.3083 5.69183 17.0666 9.16683 17.45V19.1666H10.8335V17.45C14.3085 17.0666 17.0668 14.3083 17.4502 10.8333H19.1668V9.16665H17.4502ZM10.0002 15.8333C6.77516 15.8333 4.16683 13.225 4.16683 9.99998C4.16683 6.77498 6.77516 4.16665 10.0002 4.16665C13.2252 4.16665 15.8335 6.77498 15.8335 9.99998C15.8335 13.225 13.2252 15.8333 10.0002 15.8333Z" fill="currentColor"/>
</g>
<defs>
<clipPath id="clip0_217_4009">
<rect width="20" height="20" fill="white"/>
</clipPath>
</defs>
</svg>
