<svg width="16" height="16" viewBox="0 0 16 16" fill="none" xmlns="http://www.w3.org/2000/svg">
<path d="M14.5 7.99994C14.4997 7.87683 14.4652 7.75622 14.4005 7.6515C14.3358 7.54677 14.2433 7.46201 14.1334 7.40661L10.0534 5.36661V2.69994C10.0534 2.15536 9.83702 1.63309 9.45195 1.24801C9.06687 0.862939 8.5446 0.646606 8.00002 0.646606C7.45545 0.646606 6.93317 0.862939 6.5481 1.24801C6.16302 1.63309 5.94669 2.15536 5.94669 2.69994V5.36661L1.86669 7.40661C1.75675 7.46201 1.66429 7.54677 1.59957 7.6515C1.53485 7.75622 1.5004 7.87683 1.50002 7.99994V10.2199C1.49912 10.3285 1.52476 10.4357 1.57472 10.5322C1.62468 10.6286 1.69745 10.7114 1.78669 10.7733C1.87542 10.8341 1.97755 10.8725 2.08435 10.8853C2.19115 10.898 2.29946 10.8848 2.40002 10.8466L5.94669 9.51327V11.9999L4.73336 12.3999C4.60094 12.4447 4.48593 12.5299 4.40458 12.6435C4.32324 12.7572 4.27966 12.8935 4.28002 13.0333V14.6666C4.28039 14.7548 4.29826 14.8421 4.33259 14.9233C4.36692 15.0046 4.41703 15.0782 4.48002 15.1399C4.6042 15.2631 4.7718 15.3325 4.94669 15.3333H11.06C11.2368 15.3333 11.4064 15.263 11.5314 15.138C11.6565 15.013 11.7267 14.8434 11.7267 14.6666V12.9999C11.7271 12.8602 11.6835 12.7238 11.6021 12.6102C11.5208 12.4965 11.4058 12.4113 11.2734 12.3666L10.0534 11.9999V9.51994L13.6 10.8533C13.7006 10.8914 13.8089 10.9047 13.9157 10.8919C14.0225 10.8792 14.1246 10.8407 14.2134 10.7799C14.3026 10.718 14.3754 10.6353 14.4253 10.5388C14.4753 10.4424 14.5009 10.3352 14.5 10.2266V7.99994ZM9.62669 7.93327C9.52521 7.89396 9.41565 7.88009 9.30757 7.89288C9.1995 7.90566 9.0962 7.94471 9.00669 8.00661C8.91838 8.06787 8.84619 8.14958 8.79628 8.24476C8.74636 8.33995 8.7202 8.44579 8.72002 8.55327V12.4466C8.72013 12.5872 8.76467 12.7241 8.84729 12.8379C8.9299 12.9516 9.04636 13.0364 9.18002 13.0799L10.3867 13.4799V13.9999H5.60669V13.4799L6.81336 13.0799C6.94702 13.0364 7.06348 12.9516 7.14609 12.8379C7.22871 12.7241 7.27325 12.5872 7.27336 12.4466V8.55327C7.27318 8.44579 7.24702 8.33995 7.1971 8.24476C7.14719 8.14958 7.075 8.06787 6.98669 8.00661C6.89718 7.94471 6.79388 7.90566 6.6858 7.89288C6.57773 7.88009 6.46817 7.89396 6.36669 7.93327L2.82669 9.26661V8.41327L6.90002 6.37327C7.01121 6.3188 7.10503 6.23444 7.17097 6.12964C7.23691 6.02484 7.27236 5.90375 7.27336 5.77994V2.71994C7.27336 2.52898 7.34921 2.34585 7.48424 2.21082C7.61927 2.0758 7.8024 1.99994 7.99336 1.99994C8.18431 1.99994 8.36745 2.0758 8.50247 2.21082C8.6375 2.34585 8.71336 2.52898 8.71336 2.71994V5.77994C8.71435 5.90375 8.7498 6.02484 8.81574 6.12964C8.88168 6.23444 8.9755 6.3188 9.08669 6.37327L13.16 8.41327V9.25994L9.62669 7.93327Z" fill="currentColor"/>
</svg>
