<svg width="16" height="12" viewBox="0 0 16 12" fill="none" xmlns="http://www.w3.org/2000/svg">
<g clip-path="url(#clip0_275_945)">
<path d="M7.99984 5.33329C6.5265 5.33329 5.33317 6.52663 5.33317 7.99996C5.33317 9.47329 6.5265 10.6666 7.99984 10.6666C9.47317 10.6666 10.6665 9.47329 10.6665 7.99996C10.6665 6.52663 9.47317 5.33329 7.99984 5.33329ZM13.9598 7.33329C13.6532 4.55329 11.4465 2.34663 8.6665 2.03996V0.666626H7.33317V2.03996C4.55317 2.34663 2.3465 4.55329 2.03984 7.33329H0.666504V8.66663H2.03984C2.3465 11.4466 4.55317 13.6533 7.33317 13.96V15.3333H8.6665V13.96C11.4465 13.6533 13.6532 11.4466 13.9598 8.66663H15.3332V7.33329H13.9598V7.33329ZM7.99984 12.6666C5.41984 12.6666 3.33317 10.58 3.33317 7.99996C3.33317 5.41996 5.41984 3.33329 7.99984 3.33329C10.5798 3.33329 12.6665 5.41996 12.6665 7.99996C12.6665 10.58 10.5798 12.6666 7.99984 12.6666Z" fill="currentColor"/>
</g>
<defs>
<clipPath id="clip0_275_945">
<rect width="16" height="16" fill="currentColor"/>
</clipPath>
</defs>
</svg>
