<svg width="16" height="16" viewBox="0 0 20 20" fill="none" xmlns="http://www.w3.org/2000/svg">
<path d="M1.26942 6.00523C1.24206 6.22379 1.22627 6.44234 1.22101 6.66559C1.21995 6.67966 1.21995 6.69279 1.22101 6.70686V6.841V11.3631C0.517882 11.274 -0.004193 10.7356 3.74931e-05 10.1025V7.27059C-0.00522556 6.62056 0.544205 6.07369 1.26942 6.00523ZM8.16997 12.8967L8.54468 12.332C8.56047 12.3058 8.58468 12.2692 8.60889 12.2382L8.66573 12.1688V12.1698C8.79519 12.0178 8.95623 11.8902 9.14043 11.7946C9.21306 11.7561 9.2899 11.7233 9.36989 11.6961C9.77618 11.5479 10.2319 11.5479 10.6382 11.6961C10.7151 11.7214 10.7877 11.7533 10.8572 11.7927C11.0382 11.8865 11.1961 12.0122 11.3203 12.1623C11.3466 12.1914 11.3719 12.2214 11.3929 12.2533C11.4161 12.2805 11.4361 12.3095 11.4519 12.3396L11.8192 12.8827C12.1129 13.3592 12.6771 13.6537 13.2876 13.649H14.9906C15.939 13.649 16.7084 12.9643 16.7095 12.1191V9.34345C16.7084 8.49831 15.939 7.81356 14.9906 7.81356H5.00396C4.05561 7.81356 3.28617 8.49831 3.28512 9.34345V10.2824C3.28512 10.4147 3.16407 10.5225 3.01566 10.5225C2.86725 10.5225 2.7462 10.4147 2.7462 10.2824V9.34345C2.74936 8.23285 3.75877 7.33423 5.00396 7.33329H14.9906C16.2358 7.33423 17.2452 8.23285 17.2484 9.34345V12.1266C17.2473 12.3095 17.2179 12.4924 17.1621 12.6687H17.3747C17.8525 12.6687 18.2399 12.3235 18.2399 11.8977V6.87945C16.0411 6.06432 13.6834 5.64316 11.3013 5.64033H8.64993C6.28797 5.63376 3.94924 6.04555 1.76825 6.85318V11.8959C1.76825 12.3218 2.15559 12.667 2.63345 12.667H2.84607C2.83238 12.6238 2.8187 12.5807 2.80817 12.5394C2.80712 12.5281 2.80712 12.5169 2.80817 12.5056C2.79449 12.4484 2.78397 12.3856 2.77555 12.3227V12.3236C2.77134 12.257 2.77134 12.1904 2.77555 12.1238V11.243C2.77555 11.1099 2.89659 11.0029 3.045 11.0029C3.19447 11.0029 3.31446 11.1099 3.31446 11.243V12.1267V12.2777C3.31972 12.3274 3.3292 12.3771 3.34183 12.4268V12.4512C3.34183 12.4587 3.36288 12.5281 3.37656 12.5666V12.5656C3.40077 12.6285 3.42814 12.6904 3.45972 12.7504C3.49129 12.7823 3.51234 12.8198 3.52182 12.8611L3.53024 12.8827C3.58076 12.9671 3.64076 13.0478 3.70812 13.1228C3.73233 13.1472 3.7597 13.1754 3.78917 13.1997C3.82812 13.2373 3.86916 13.272 3.91337 13.3057L3.9839 13.3536H3.98284C4.00179 13.3686 4.02284 13.3827 4.04495 13.3939C4.086 13.4202 4.12915 13.4446 4.17441 13.4661L4.3144 13.529L4.45229 13.5768C4.52913 13.6012 4.60807 13.62 4.68912 13.6322C4.72175 13.634 4.75543 13.634 4.78911 13.6322H4.85964H4.85858C4.90805 13.6359 4.95753 13.6359 5.007 13.6322H6.7069C7.30792 13.6415 7.86788 13.3601 8.16997 12.8967ZM11.3013 5.15997C13.6717 5.16466 16.019 5.57175 18.2189 6.36062C18.2041 6.20022 18.1852 6.04077 18.162 5.88036C18.1389 5.84659 18.1273 5.80907 18.1273 5.76968C18.1252 5.75842 18.1252 5.74623 18.1273 5.73403C17.8305 4.13567 16.9084 2.68269 15.5243 1.63308C14.1401 0.583469 12.3835 0.00470656 10.5657 0H9.40157C7.58903 0.00375228 5.83556 0.579699 4.45459 1.6265C3.07257 2.67333 2.15261 4.12266 1.85686 5.71713C1.85896 5.72932 1.85896 5.74151 1.85686 5.75277C1.85686 5.79217 1.84422 5.83063 1.82212 5.86346C1.79791 6.01729 1.77896 6.17111 1.76844 6.32684C3.95673 5.54641 6.29344 5.14964 8.65012 5.15995L11.3013 5.15997ZM18.7252 6.00792C18.7546 6.23398 18.7715 6.46378 18.7768 6.69455V6.72832V6.84088L18.7757 11.3601C18.8736 11.347 18.9694 11.3254 19.062 11.2954V14.9329C19.0578 16.7536 17.4021 18.2282 15.3591 18.2328H12.6088V17.685C12.5972 17.291 12.2414 16.9749 11.8004 16.9646H8.16809C7.73232 16.9777 7.38604 17.2967 7.38604 17.685V19.3031C7.38604 19.6877 7.73655 20 8.16809 20H11.8004C12.2361 20 12.594 19.6923 12.6088 19.3031V18.7131H15.3591C16.4843 18.7112 17.5621 18.3125 18.3579 17.6043C19.1536 16.8961 19.601 15.9356 19.6031 14.9329V10.9856C19.8599 10.7474 20.002 10.4313 19.9999 10.102V7.27015C20.0073 6.61824 19.4537 6.0695 18.7253 6.00759L18.7252 6.00792Z" fill="currentColor"/>
</svg>
