<svg width="16" height="16" viewBox="0 0 20 20" fill="none" xmlns="http://www.w3.org/2000/svg">
<path d="M18.125 10C18.1246 9.84613 18.0815 9.69537 18.0006 9.56446C17.9197 9.43355 17.8041 9.3276 17.6667 9.25835L12.5667 6.70835V3.37502C12.5667 2.69429 12.2963 2.04145 11.8149 1.56011C11.3336 1.07877 10.6808 0.80835 10 0.80835C9.31931 0.80835 8.66646 1.07877 8.18512 1.56011C7.70378 2.04145 7.43336 2.69429 7.43336 3.37502V6.70835L2.33336 9.25835C2.19593 9.3276 2.08036 9.43355 1.99946 9.56446C1.91857 9.69537 1.8755 9.84613 1.87503 10V12.775C1.8739 12.9108 1.90595 13.0448 1.9684 13.1653C2.03085 13.2858 2.12181 13.3893 2.23336 13.4667C2.34428 13.5427 2.47194 13.5907 2.60544 13.6067C2.73894 13.6226 2.87432 13.6061 3.00003 13.5583L7.43336 11.8917V15L5.9167 15.5C5.75118 15.5559 5.60742 15.6624 5.50573 15.8045C5.40404 15.9466 5.34958 16.117 5.35003 16.2917V18.3333C5.35049 18.4436 5.37282 18.5527 5.41573 18.6542C5.45865 18.7558 5.52129 18.8478 5.60003 18.925C5.75525 19.079 5.96475 19.1658 6.18336 19.1667H13.825C14.046 19.1667 14.258 19.0789 14.4143 18.9226C14.5706 18.7663 14.6584 18.5544 14.6584 18.3333V16.25C14.6588 16.0753 14.6043 15.9049 14.5027 15.7628C14.401 15.6208 14.2572 15.5143 14.0917 15.4583L12.5667 15V11.9L17 13.5667C17.1257 13.6144 17.2611 13.631 17.3946 13.615C17.5281 13.599 17.6558 13.551 17.7667 13.475C17.8782 13.3976 17.9692 13.2942 18.0317 13.1736C18.0941 13.0531 18.1262 12.9191 18.125 12.7833V10ZM12.0334 9.91668C11.9065 9.86754 11.7696 9.85021 11.6345 9.86619C11.4994 9.88217 11.3702 9.93097 11.2584 10.0083C11.148 10.0849 11.0577 10.1871 10.9953 10.306C10.933 10.425 10.9002 10.5573 10.9 10.6917V15.5583C10.9002 15.7341 10.9558 15.9053 11.0591 16.0475C11.1624 16.1896 11.308 16.2955 11.475 16.35L12.9834 16.85V17.5H7.00836V16.85L8.5167 16.35C8.68377 16.2955 8.82934 16.1896 8.93262 16.0475C9.03589 15.9053 9.09157 15.7341 9.09169 15.5583V10.6917C9.09147 10.5573 9.05877 10.425 8.99638 10.306C8.93399 10.1871 8.84375 10.0849 8.73336 10.0083C8.62148 9.93097 8.49235 9.88217 8.35726 9.86619C8.22216 9.85021 8.08521 9.86754 7.95836 9.91668L3.53336 11.5833V10.5167L8.62503 7.96668C8.76401 7.89859 8.88129 7.79313 8.96372 7.66214C9.04614 7.53114 9.09045 7.37978 9.09169 7.22502V3.40002C9.09169 3.16132 9.18652 2.9324 9.3553 2.76362C9.52408 2.59484 9.753 2.50002 9.99169 2.50002C10.2304 2.50002 10.4593 2.59484 10.6281 2.76362C10.7969 2.9324 10.8917 3.16132 10.8917 3.40002V7.22502C10.8929 7.37978 10.9373 7.53114 11.0197 7.66214C11.1021 7.79313 11.2194 7.89859 11.3584 7.96668L16.45 10.5167V11.575L12.0334 9.91668Z" fill="currentColor"/>
</svg>
