<svg width="14" height="14" viewBox="0 0 12 12" fill="none" xmlns="http://www.w3.org/2000/svg">
<path d="M0.761654 3.60314C0.745235 3.73427 0.735761 3.8654 0.732603 3.99935C0.731971 4.0078 0.731971 4.01567 0.732603 4.02412V4.1046V6.81788C0.310729 6.76442 -0.0025158 6.44136 2.24959e-05 6.06147V4.36235C-0.00313534 3.97233 0.326523 3.64421 0.761654 3.60314ZM4.90198 7.73804L5.12681 7.39923C5.13628 7.38347 5.15081 7.36152 5.16533 7.34295L5.19943 7.3013V7.30186C5.27711 7.21069 5.37374 7.13414 5.48426 7.07674C5.52783 7.05366 5.57394 7.03397 5.62193 7.01764C5.86571 6.92872 6.13916 6.92872 6.38294 7.01764C6.42904 7.03284 6.47262 7.05198 6.5143 7.07561C6.62292 7.13189 6.71765 7.20731 6.79218 7.29736C6.80797 7.31481 6.82313 7.33282 6.83576 7.35196C6.84965 7.36828 6.86165 7.38573 6.87113 7.40374L7.09154 7.7296C7.26773 8.01551 7.60624 8.19222 7.97254 8.18941H8.99437C9.56338 8.18941 10.025 7.77856 10.0257 7.27147V5.60607C10.025 5.09899 9.56338 4.68813 8.99437 4.68813H3.00238C2.43336 4.68813 1.9717 5.09899 1.97107 5.60607V6.16945C1.97107 6.2488 1.89844 6.31352 1.8094 6.31352C1.72035 6.31352 1.64772 6.2488 1.64772 6.16945V5.60607C1.64962 4.93971 2.25526 4.40054 3.00238 4.39998H8.99437C9.74148 4.40054 10.3471 4.93971 10.349 5.60607V7.27594C10.3484 7.38569 10.3307 7.49543 10.2972 7.60124H10.4248C10.7115 7.60124 10.9439 7.39413 10.9439 7.13862V4.12767C9.62463 3.63859 8.21001 3.3859 6.78081 3.3842H5.18996C3.77278 3.38026 2.36954 3.62733 1.06095 4.11191V7.13755C1.06095 7.39306 1.29336 7.60017 1.58007 7.60017H1.70764C1.69943 7.57428 1.69122 7.5484 1.6849 7.52363C1.68427 7.51688 1.68427 7.51012 1.6849 7.50337C1.67669 7.46904 1.67038 7.43133 1.66533 7.39362V7.39419C1.6628 7.35423 1.6628 7.31427 1.66533 7.27431V6.74583C1.66533 6.66591 1.73795 6.60175 1.827 6.60175C1.91668 6.60175 1.98868 6.66591 1.98868 6.74583V7.27599V7.36661C1.99183 7.39644 1.99752 7.42626 2.0051 7.45609V7.47072C2.0051 7.47523 2.01773 7.51687 2.02594 7.53995V7.53939C2.04046 7.5771 2.05688 7.61424 2.07583 7.65026C2.09478 7.66939 2.10741 7.69191 2.11309 7.71667L2.11814 7.72962C2.14846 7.78027 2.18445 7.82867 2.22487 7.87369C2.2394 7.88833 2.25582 7.90521 2.2735 7.91984C2.29687 7.94236 2.3215 7.96318 2.34802 7.98344L2.39034 8.01215H2.38971C2.40107 8.02115 2.41371 8.02959 2.42697 8.03635C2.4516 8.05211 2.47749 8.06674 2.50465 8.07968L2.58864 8.11739L2.67137 8.14609C2.71748 8.16073 2.76484 8.17198 2.81347 8.1793C2.83305 8.18042 2.85326 8.18042 2.87347 8.1793H2.91578H2.91515C2.94483 8.18155 2.97452 8.18155 3.0042 8.1793H4.02414C4.38475 8.18493 4.72073 8.01607 4.90198 7.73804ZM6.7808 3.09598C8.20304 3.0988 9.61141 3.34305 10.9313 3.81637C10.9225 3.72013 10.9111 3.62446 10.8972 3.52822C10.8833 3.50796 10.8764 3.48544 10.8764 3.46181C10.8751 3.45505 10.8751 3.44774 10.8764 3.44042C10.6983 2.4814 10.1451 1.60961 9.31456 0.979848C8.48407 0.350082 7.43008 0.00282394 6.33942 0H5.64094C4.55342 0.00225137 3.50134 0.34782 2.67275 0.9759C1.84354 1.604 1.29157 2.4736 1.11411 3.43028C1.11538 3.43759 1.11538 3.44491 1.11411 3.45166C1.11411 3.4753 1.10653 3.49838 1.09327 3.51807C1.07875 3.61037 1.06738 3.70267 1.06106 3.7961C2.37404 3.32785 3.77607 3.08979 5.19007 3.09597L6.7808 3.09598ZM11.2351 3.60475C11.2528 3.74039 11.2629 3.87827 11.2661 4.01673V4.03699V4.10453L11.2654 6.81608C11.3242 6.8082 11.3816 6.79526 11.4372 6.77725V8.95975C11.4347 10.0521 10.4413 10.9369 9.21546 10.9397H7.56525V10.611C7.5583 10.3746 7.34484 10.185 7.08023 10.1788H4.90085C4.63939 10.1866 4.43162 10.378 4.43162 10.611V11.5818C4.43162 11.8126 4.64193 12 4.90085 12H7.08023C7.34169 12 7.55641 11.8154 7.56525 11.5818V11.2278H9.21546C9.89059 11.2267 10.5373 10.9875 11.0147 10.5626C11.4922 10.1377 11.7606 9.56137 11.7619 8.95973V6.59137C11.916 6.44842 12.0012 6.25875 12 6.06121V4.36209C12.0044 3.97095 11.6722 3.6417 11.2352 3.60455L11.2351 3.60475Z" fill="currentColor"/>
</svg>
