<svg width="25" height="16" viewBox="0 0 25 16" fill="none" xmlns="http://www.w3.org/2000/svg">
<path d="M18.3488 7.13051C18.9396 6.96631 19.5527 7.32457 19.7078 7.92166C19.8629 8.51875 19.5157 9.13077 18.9175 9.30243C11.9378 11.1907 6.67906 12.6088 6.67906 12.6088L4.76611 9.25765L5.83707 8.96657L7.29209 10.116L10.9629 9.1233L7.90512 3.77188L9.3306 3.39124L14.4269 8.19035L18.3488 7.13051Z" fill="#161313"/>
<path d="M1.99951 0.75C1.30932 0.750194 0.749512 1.30976 0.749512 2V14C0.749512 14.6902 1.30932 15.2498 1.99951 15.25H23.7603V12.0742C22.7794 11.9898 22.0093 11.1687 22.0093 10.166V5.16699C22.0094 4.16434 22.7794 3.34218 23.7603 3.25781V0.75H1.99951Z" stroke="#161313" stroke-width="1.5"/>
</svg>
