<svg width="71" height="20" viewBox="0 0 71 20" fill="none" xmlns="http://www.w3.org/2000/svg">
<g clip-path="url(#clip0_78_816)">
<path d="M0 20V0H0.865V20H0ZM1.73 20V0H2.595V20H1.73ZM5.19 20V0H6.92V20H5.19Z" fill="black"/>
</g>
<g clip-path="url(#clip1_78_816)">
<path d="M7.12012 20V0H9.88812V20H7.12012ZM10.5801 20V0H12.6561V20H10.5801ZM13.3481 20V0H14.0401V20H13.3481Z" fill="black"/>
</g>
<g clip-path="url(#clip2_78_816)">
<path d="M14.2402 20V0H15.0091V20H14.2402ZM18.0847 20V0H19.6225V20H18.0847ZM20.3913 20V0H21.1602V20H20.3913Z" fill="black"/>
</g>
<g clip-path="url(#clip3_78_816)">
<path d="M21.3599 20V0H22.0519V20H21.3599ZM23.4359 20V0H24.1279V20H23.4359ZM25.5119 20V0H28.2799V20H25.5119Z" fill="black"/>
</g>
<g clip-path="url(#clip4_78_816)">
<path d="M28.48 20V0H29.172V20H28.48ZM29.864 20V0H31.94V20H29.864ZM34.016 20V0H35.4V20H34.016Z" fill="black"/>
</g>
<g clip-path="url(#clip5_78_816)">
<path d="M35.6001 20V0H36.369V20H35.6001ZM39.4445 20V0H40.9823V20H39.4445ZM41.7512 20V0H42.5201V20H41.7512Z" fill="black"/>
</g>
<g clip-path="url(#clip6_78_816)">
<path d="M42.7202 20V0H44.1042V20H42.7202ZM46.8722 20V0H47.5642V20H46.8722ZM48.9482 20V0H49.6402V20H48.9482Z" fill="black"/>
</g>
<g clip-path="url(#clip7_78_816)">
<path d="M49.8398 20V0H51.817V20H49.8398ZM53.7941 20V0H54.7827V20H53.7941ZM55.7713 20V0H56.7598V20H55.7713Z" fill="black"/>
</g>
<g clip-path="url(#clip8_78_816)">
<path d="M56.96 20V0H57.9485V20H56.96ZM59.9257 20V0H60.9142V20H59.9257ZM61.9028 20V0H63.88V20H61.9028Z" fill="black"/>
</g>
<g clip-path="url(#clip9_78_816)">
<path d="M64.0801 20V0H64.849V20H64.0801ZM65.6179 20V0H68.6934V20H65.6179ZM70.2312 20V0H71.0001V20H70.2312Z" fill="black"/>
</g>
<defs>
<clipPath id="clip0_78_816">
<rect width="6.92" height="20" fill="white"/>
</clipPath>
<clipPath id="clip1_78_816">
<rect width="6.92" height="20" fill="white" transform="translate(7.12012)"/>
</clipPath>
<clipPath id="clip2_78_816">
<rect width="6.92" height="20" fill="white" transform="translate(14.2402)"/>
</clipPath>
<clipPath id="clip3_78_816">
<rect width="6.92" height="20" fill="white" transform="translate(21.3599)"/>
</clipPath>
<clipPath id="clip4_78_816">
<rect width="6.92" height="20" fill="white" transform="translate(28.48)"/>
</clipPath>
<clipPath id="clip5_78_816">
<rect width="6.92" height="20" fill="white" transform="translate(35.6001)"/>
</clipPath>
<clipPath id="clip6_78_816">
<rect width="6.92" height="20" fill="white" transform="translate(42.7202)"/>
</clipPath>
<clipPath id="clip7_78_816">
<rect width="6.92" height="20" fill="white" transform="translate(49.8398)"/>
</clipPath>
<clipPath id="clip8_78_816">
<rect width="6.92" height="20" fill="white" transform="translate(56.96)"/>
</clipPath>
<clipPath id="clip9_78_816">
<rect width="6.92" height="20" fill="white" transform="translate(64.0801)"/>
</clipPath>
</defs>
</svg>
