<svg width="16" height="16" viewBox="0 0 16 16" fill="none" xmlns="http://www.w3.org/2000/svg">
<g clip-path="url(#clip0_84_299)">
<path d="M13.9598 7.33335C13.6532 4.55335 11.4465 2.34669 8.6665 2.04002V0.666687H7.33317V2.04002C4.55317 2.34669 2.3465 4.55335 2.03984 7.33335H0.666504V8.66669H2.03984C2.3465 11.4467 4.55317 13.6534 7.33317 13.96V15.3334H8.6665V13.96C11.4465 13.6534 13.6532 11.4467 13.9598 8.66669H15.3332V7.33335H13.9598ZM7.99984 12.6667C5.41984 12.6667 3.33317 10.58 3.33317 8.00002C3.33317 5.42002 5.41984 3.33335 7.99984 3.33335C10.5798 3.33335 12.6665 5.42002 12.6665 8.00002C12.6665 10.58 10.5798 12.6667 7.99984 12.6667Z" fill="currentColor"/>
</g>
<defs>
<clipPath id="clip0_84_299">
<rect width="16" height="16" fill="currentColor"/>
</clipPath>
</defs>
</svg>
