<svg width="16" height="16" viewBox="0 0 16 16" fill="none" xmlns="http://www.w3.org/2000/svg">
<path d="M8.00016 4.66667C6.16016 4.66667 4.66683 6.16 4.66683 8C4.66683 9.84 6.16016 11.3333 8.00016 11.3333C9.84016 11.3333 11.3335 9.84 11.3335 8C11.3335 6.16 9.84016 4.66667 8.00016 4.66667ZM8.00016 1.33333C4.32016 1.33333 1.3335 4.32 1.3335 8C1.3335 11.68 4.32016 14.6667 8.00016 14.6667C11.6802 14.6667 14.6668 11.68 14.6668 8C14.6668 4.32 11.6802 1.33333 8.00016 1.33333ZM8.00016 13.3333C5.0535 13.3333 2.66683 10.9467 2.66683 8C2.66683 5.05333 5.0535 2.66667 8.00016 2.66667C10.9468 2.66667 13.3335 5.05333 13.3335 8C13.3335 10.9467 10.9468 13.3333 8.00016 13.3333Z" fill="currentColor"/>
</svg>
